<?xml version="1.0"?>
<svg xmlns="http://www.w3.org/2000/svg" xmlns:xlink="http://www.w3.org/1999/xlink" xmlns:svgjs="http://svgjs.com/svgjs" version="1.1" width="512" height="512" x="0" y="0" viewBox="0 0 512 512" style="enable-background:new 0 0 512 512" xml:space="preserve" class=""><g>
<rect xmlns="http://www.w3.org/2000/svg" x="332.013" y="186.924" transform="matrix(-0.8321 -0.5547 0.5547 -0.8321 502.067 634.0278)" style="" width="30" height="108.174" fill="#0ca656" data-original="#0ca656" class=""/>
<path xmlns="http://www.w3.org/2000/svg" style="" d="M452,361v60H0v-60l31-15L0,331v-38.699C0,204.7,66.4,129.7,149.801,121.901  C155.2,121.3,160.6,121,166,121c41.4-0.3,80.099,14.7,111,42.9c30.599,27.9,50.499,66.301,54.399,107.1H377  c36.301,0,66.599,25.8,73.5,60L422,346L452,361z" fill="#57eb66" data-original="#32d736" class=""/>
<path xmlns="http://www.w3.org/2000/svg" style="" d="M452,361v60H166V121c41.4-0.3,80.099,14.7,111,42.9c30.599,27.9,50.499,66.301,54.399,107.1H377  c36.301,0,66.599,25.8,73.5,60L422,346L452,361z" fill="#10bb67" data-original="#10bb67" class=""/>
<path xmlns="http://www.w3.org/2000/svg" style="" d="M271,286v15H61v-15c0-57.9,47.1-105,105-105c28.801,0,55.201,11.7,74.099,30.901  C259.3,230.799,271,257.199,271,286z" fill="#efe6de" data-original="#efe6de" class=""/>
<path xmlns="http://www.w3.org/2000/svg" style="" d="M271,286v15H166V181c28.801,0,55.201,11.7,74.099,30.901C259.3,230.799,271,257.199,271,286z" fill="#dfccbf" data-original="#dfccbf" class=""/>
<rect xmlns="http://www.w3.org/2000/svg" x="181" y="331" style="" width="60" height="30" fill="#0ca656" data-original="#0ca656" class=""/>
<g xmlns="http://www.w3.org/2000/svg">
	<circle style="" cx="437" cy="256" r="15" fill="#3e4968" data-original="#3c3a41" class=""/>
	<path style="" d="M437,211c-24.814,0-45-20.186-45-45c0-7.134,1.802-14.165,5.2-20.552   c-3.428-7.646-5.2-15.938-5.2-24.448c0-33.091,26.909-60,60-60s60,26.909,60,60c0,21.812-11.924,41.587-30.557,52.075   C478.045,194.535,459.412,211,437,211z" fill="#3e4968" data-original="#3c3a41" class=""/>
</g>
<path xmlns="http://www.w3.org/2000/svg" style="" d="M106,361c-24.901,0-45,20.099-45,45s20.099,45,45,45s45-20.099,45-45S130.901,361,106,361z" fill="#57555c" data-original="#57555c" class=""/>
<path xmlns="http://www.w3.org/2000/svg" style="" d="M151,406c0,24.901-20.099,45-45,45v-90C130.901,361,151,381.099,151,406z" fill="#3e4968" data-original="#3c3a41" class=""/>
<path xmlns="http://www.w3.org/2000/svg" style="" d="M106,391c-8.401,0-15,6.599-15,15s6.599,15,15,15s15-6.599,15-15S114.401,391,106,391z" fill="#efe6de" data-original="#efe6de" class=""/>
<path xmlns="http://www.w3.org/2000/svg" style="" d="M121,406c0,8.401-6.599,15-15,15v-30C114.401,391,121,397.599,121,406z" fill="#dfccbf" data-original="#dfccbf" class=""/>
<path xmlns="http://www.w3.org/2000/svg" style="" d="M347,361c-24.901,0-45,20.099-45,45s20.099,45,45,45s45-20.099,45-45S371.901,361,347,361z" fill="#57555c" data-original="#57555c" class=""/>
<path xmlns="http://www.w3.org/2000/svg" style="" d="M392,406c0,24.901-20.099,45-45,45v-90C371.901,361,392,381.099,392,406z" fill="#3e4968" data-original="#3c3a41" class=""/>
<path xmlns="http://www.w3.org/2000/svg" style="" d="M347,391c-8.401,0-15,6.599-15,15s6.599,15,15,15s15-6.599,15-15S355.401,391,347,391z" fill="#efe6de" data-original="#efe6de" class=""/>
<path xmlns="http://www.w3.org/2000/svg" style="" d="M362,406c0,8.401-6.599,15-15,15v-30C355.401,391,362,397.599,362,406z" fill="#dfccbf" data-original="#dfccbf" class=""/>
<path xmlns="http://www.w3.org/2000/svg" style="" d="M450.488,331H392v30h60v-15C452,340.862,451.473,335.849,450.488,331z" fill="#0ca656" data-original="#0ca656" class=""/>
<rect xmlns="http://www.w3.org/2000/svg" y="331" style="" width="61" height="30" fill="#10bb67" data-original="#10bb67" class=""/>
<g xmlns="http://www.w3.org/2000/svg">
</g>
<g xmlns="http://www.w3.org/2000/svg">
</g>
<g xmlns="http://www.w3.org/2000/svg">
</g>
<g xmlns="http://www.w3.org/2000/svg">
</g>
<g xmlns="http://www.w3.org/2000/svg">
</g>
<g xmlns="http://www.w3.org/2000/svg">
</g>
<g xmlns="http://www.w3.org/2000/svg">
</g>
<g xmlns="http://www.w3.org/2000/svg">
</g>
<g xmlns="http://www.w3.org/2000/svg">
</g>
<g xmlns="http://www.w3.org/2000/svg">
</g>
<g xmlns="http://www.w3.org/2000/svg">
</g>
<g xmlns="http://www.w3.org/2000/svg">
</g>
<g xmlns="http://www.w3.org/2000/svg">
</g>
<g xmlns="http://www.w3.org/2000/svg">
</g>
<g xmlns="http://www.w3.org/2000/svg">
</g>
</g></svg>
