<?xml version="1.0"?>
<svg xmlns="http://www.w3.org/2000/svg" xmlns:xlink="http://www.w3.org/1999/xlink" xmlns:svgjs="http://svgjs.com/svgjs" version="1.1" width="512" height="512" x="0" y="0" viewBox="0 0 512 512" style="enable-background:new 0 0 512 512" xml:space="preserve" class=""><g>
<path xmlns="http://www.w3.org/2000/svg" style="" d="M0,0v512h392V0H0z" fill="#efe6de" data-original="#efe6de" class=""/>
<rect xmlns="http://www.w3.org/2000/svg" x="196" style="" width="196" height="512" fill="#dfccbf" data-original="#dfccbf" class=""/>
<path xmlns="http://www.w3.org/2000/svg" style="" d="M136,151c-24.814,0-45-20.186-45-45s20.186-45,45-45s45,20.186,45,45S160.814,151,136,151z" fill="#3e4968" data-original="#c8ad92" class=""/>
<path xmlns="http://www.w3.org/2000/svg" style="" d="M256,271c-24.814,0-45-20.186-45-45s20.186-45,45-45s45,20.186,45,45S280.814,271,256,271z" fill="#202c4e" data-original="#bc9b7d" class=""/>
<g xmlns="http://www.w3.org/2000/svg">
	<polygon style="" points="268.599,84.399 196,193.299 148.599,264.399 123.401,247.599 196,138.699 243.401,67.599     " fill="#3e4968" data-original="#c8ad92" class=""/>
	<rect x="61" y="302" style="" width="270" height="30" fill="#3e4968" data-original="#c8ad92" class=""/>
	<rect x="91" y="362" style="" width="210" height="30" fill="#3e4968" data-original="#c8ad92" class=""/>
	<rect x="121" y="422" style="" width="150" height="30" fill="#3e4968" data-original="#c8ad92" class=""/>
</g>
<g xmlns="http://www.w3.org/2000/svg">
	<polygon style="" points="268.599,84.399 196,193.299 196,138.699 243.401,67.599  " fill="#202c4e" data-original="#bc9b7d" class=""/>
	<rect x="196" y="422" style="" width="75" height="30" fill="#202c4e" data-original="#bc9b7d" class=""/>
	<rect x="196" y="362" style="" width="105" height="30" fill="#202c4e" data-original="#bc9b7d" class=""/>
	<rect x="196" y="302" style="" width="135" height="30" fill="#202c4e" data-original="#bc9b7d" class=""/>
</g>
<polygon xmlns="http://www.w3.org/2000/svg" style="" points="512,392 512,410.6 467,500.6 422,410.6 422,392 452,362 482,362 " fill="#fec478" data-original="#fec478" class=""/>
<path xmlns="http://www.w3.org/2000/svg" style="" d="M512,76v45l-30,30h-30l-30-30V76c0-24.901,20.099-45,45-45S512,51.099,512,76z" fill="#57555c" data-original="#57555c" class=""/>
<path xmlns="http://www.w3.org/2000/svg" style="" d="M512,76v45l-30,30h-15V31C491.901,31,512,51.099,512,76z" fill="#3c3a41" data-original="#3c3a41" class=""/>
<polygon xmlns="http://www.w3.org/2000/svg" style="" points="482,362 512,392 512,410.6 467,500.6 467,362 " fill="#fec478" data-original="#fec478" class=""/>
<rect xmlns="http://www.w3.org/2000/svg" x="422" y="121" style="" width="90" height="271" fill="#57eb66" data-original="#fd4e26" class=""/>
<rect xmlns="http://www.w3.org/2000/svg" x="467" y="121" style="" width="45" height="271" fill="#26bb35" data-original="#e61e14" class=""/>
<g xmlns="http://www.w3.org/2000/svg">
</g>
<g xmlns="http://www.w3.org/2000/svg">
</g>
<g xmlns="http://www.w3.org/2000/svg">
</g>
<g xmlns="http://www.w3.org/2000/svg">
</g>
<g xmlns="http://www.w3.org/2000/svg">
</g>
<g xmlns="http://www.w3.org/2000/svg">
</g>
<g xmlns="http://www.w3.org/2000/svg">
</g>
<g xmlns="http://www.w3.org/2000/svg">
</g>
<g xmlns="http://www.w3.org/2000/svg">
</g>
<g xmlns="http://www.w3.org/2000/svg">
</g>
<g xmlns="http://www.w3.org/2000/svg">
</g>
<g xmlns="http://www.w3.org/2000/svg">
</g>
<g xmlns="http://www.w3.org/2000/svg">
</g>
<g xmlns="http://www.w3.org/2000/svg">
</g>
<g xmlns="http://www.w3.org/2000/svg">
</g>
</g></svg>
