<?xml version="1.0"?>
<svg xmlns="http://www.w3.org/2000/svg" xmlns:xlink="http://www.w3.org/1999/xlink" xmlns:svgjs="http://svgjs.com/svgjs" version="1.1" width="512" height="512" x="0" y="0" viewBox="0 0 512 512" style="enable-background:new 0 0 512 512" xml:space="preserve" class=""><g>
<path xmlns="http://www.w3.org/2000/svg" style="" d="M374.957,0c-74.392,0-134.988,62.593-134.988,136.987c0,30.896,10.498,60.893,29.997,84.891v87.293  l93.891-37.497c3.6,0.3,7.499,0.3,11.099,0.3c74.392,0,136.987-60.595,136.987-134.988C511.944,62.593,449.35,0,374.957,0z" fill="#57eb66" data-original="#32d736" class=""/>
<path xmlns="http://www.w3.org/2000/svg" style="" d="M511.944,136.987c0,74.392-62.595,134.988-136.987,134.988V0  C449.35,0,511.944,62.593,511.944,136.987z" fill="#10bb67" data-original="#10bb67" class=""/>
<polygon xmlns="http://www.w3.org/2000/svg" style="" points="364.221,304.682 321.803,347.114 290.065,387.791 394.941,492.669 448.824,474.136   492.489,431.95 " fill="#3c3a41" data-original="#3c3a41" class=""/>
<polygon xmlns="http://www.w3.org/2000/svg" style="" points="79.994,20.455 37.569,62.88 49.413,117.142 124.153,191.883 164.83,190.142 207.262,147.723   " fill="#57555c" data-original="#57555c" class=""/>
<path xmlns="http://www.w3.org/2000/svg" style="" d="M448.75,474.156c-2.1,2.1-10.799,10.799-13.199,13.199c-67.794,40.496-155.086,30.597-211.781-26.098  l-86.392-86.692l-86.692-86.392c-97.491-97.491-24.298-211.781-23.698-214.78l10.499-10.499c0.3,0,124.189,124.189,127.488,127.188  l-6.299,5.999c1.5,20.998,10.499,40.796,25.498,55.795l37.797,38.096l38.096,37.797c14.999,14.999,34.797,23.998,55.795,25.498  l5.999-6.299C321.862,347.268,445.75,471.157,448.75,474.156z" fill="#3e4968" data-original="#994c0f" class=""/>
<g xmlns="http://www.w3.org/2000/svg">
	<rect x="299.963" y="121.989" style="" width="29.997" height="29.997" fill="#e1e4fb" data-original="#e1e4fb"/>
	<rect x="359.957" y="121.989" style="" width="29.997" height="29.997" fill="#e1e4fb" data-original="#e1e4fb"/>
</g>
<g xmlns="http://www.w3.org/2000/svg">
	<rect x="419.952" y="121.989" style="" width="29.997" height="29.997" fill="#c5c9f7" data-original="#c5c9f7" class=""/>
	<rect x="374.956" y="121.989" style="" width="14.999" height="29.997" fill="#c5c9f7" data-original="#c5c9f7" class=""/>
</g>
<path xmlns="http://www.w3.org/2000/svg" style="" d="M448.75,474.156c-2.1,2.1-10.799,10.799-13.199,13.199c-67.794,40.496-155.086,30.597-211.781-26.098  l-86.392-86.692l84.592-84.592l38.096,37.797c14.999,14.999,34.797,23.998,55.795,25.498l5.999-6.299  C321.862,347.268,445.75,471.157,448.75,474.156z" fill="#243156" data-original="#713708" class=""/>
<g xmlns="http://www.w3.org/2000/svg">
</g>
<g xmlns="http://www.w3.org/2000/svg">
</g>
<g xmlns="http://www.w3.org/2000/svg">
</g>
<g xmlns="http://www.w3.org/2000/svg">
</g>
<g xmlns="http://www.w3.org/2000/svg">
</g>
<g xmlns="http://www.w3.org/2000/svg">
</g>
<g xmlns="http://www.w3.org/2000/svg">
</g>
<g xmlns="http://www.w3.org/2000/svg">
</g>
<g xmlns="http://www.w3.org/2000/svg">
</g>
<g xmlns="http://www.w3.org/2000/svg">
</g>
<g xmlns="http://www.w3.org/2000/svg">
</g>
<g xmlns="http://www.w3.org/2000/svg">
</g>
<g xmlns="http://www.w3.org/2000/svg">
</g>
<g xmlns="http://www.w3.org/2000/svg">
</g>
<g xmlns="http://www.w3.org/2000/svg">
</g>
</g></svg>
